<svg xmlns="http://www.w3.org/2000/svg" id="svg2985" version="1.1" width="247.472" height="114.639">
    <g id="g3022" transform="matrix(.93821 0 0 .69595 -116.734 42.952)">
        <g id="g3826" transform="translate(-17.32 -6.466)">
            <g id="g3913" transform="translate(-98.147 -29.601) scale(2.48744)">
                <path id="path3024" transform="matrix(1.06585 0 0 1.43689 216.314 1.083)" d="M-112.467 38.155h13.931c.265-2.637 0 0 .911-7.624h4.496l.91 7.625h13.75c-1.2-7.256-2.867-15.034-4.531-22.687-4.013-1.137-7.953-1.657-11.844-1.938.602 3.375.739 3.898 1.545 7.7l-5.397.032c.55-2.878.858-4.23 1.53-7.75-3.44-.199 0 0-10.28-.313-1.674 8.298-3.347 16.657-5.021 24.955z" style="fill:#197c5a;fill-opacity:1;fill-rule:evenodd;stroke:none"/>
                <path id="path3028" transform="matrix(1.06585 0 0 1.43689 216.314 1.083)" d="M-26 14.813c-5.097 2.673-8.503 5.745-18.219 6.624l.003 16.72 12.966-.006V22.656c1.935-.005 4.091-.062 5.844-.062 6.88 0 12.428-6.558 12.428-14.961z" style="fill:#197c5a;fill-opacity:1;fill-rule:evenodd;stroke:none"/>
                <path id="path3823" transform="matrix(1.06585 0 0 1.43689 216.314 1.083)" d="M-74.375 17.719c-1.527 6.927-3.969 20.435-3.969 20.435l13.951.001c.265-2.637.628-5.05.893-7.686 1.536 0 2.995.062 4.531.062.23 2.637.646 4.988.875 7.626h13.77l-3.207-16.47c-.033.001-.061 0-.094 0-2.741-.169-6.625-.416-11.656-1.093l.163.665-4.525-.016c.237-1.274.157-.872.237-1.274a148.363 148.363 0 0 1-10.969-2.25z" style="fill:#197c5a;fill-opacity:1;fill-rule:evenodd;stroke:none"/>
                <path id="path3897" d="M142.471-10.307c-1.046 9.569-2.664 19.795-4.331 29.98 4.417 1.286 8.128 2.218 11.658 2.963.27-1.855.506-3.371 1.099-7.723.53 4.233.815 6.42 1.066 8.172 3.63.69 7.208 1.213 11.324 1.617.403.08.798.11 1.2.18-1.9-11.794-3.86-24.01-5.233-35.188l-16.783-.001z" style="fill:#e77028;fill-opacity:1;fill-rule:evenodd;stroke:none"/>
                <path id="path3902" d="M106.155-10.287L101.79 20.05l1.066-.09c.011-.002.023.002.034 0 3.457-.667 6.693-2.299 11.424-3.098.118-.856.125-.803.267-1.841.096.768.15 1.099.233 1.751 3.187-.487 7.066-.591 12.09.224l-3.983-27.258-16.767-.025z" style="fill:#e77028;fill-opacity:1;fill-rule:evenodd;stroke:none"/>
                <path id="path3909" d="M189.224-10.312c-1.897 0-4.138.058-6.162.09v-.045h-13.89v35.608c6.84.368 13.376-.85 19.42-3.098-.096.067-.174.157-.267.224 4.824-2.098 10.587-5.478 14.156-10.417v-.494c0-12.075-5.924-21.868-13.257-21.868zm-4.83 13.786c3.128 0 5.663 3.09 5.663 6.96 0 3.868-2.535 7.004-5.663 7.004-.3 0-.578-.079-.866-.134V3.608c.288-.055.567-.134.866-.134z" style="fill:#e77028;fill-opacity:1;fill-rule:evenodd;stroke:none"/>
            </g>
        </g>
    </g>
</svg>